<svg width="331" height="116" viewBox="0 0 331 116" fill="none" xmlns="http://www.w3.org/2000/svg">
<path d="M1 85.8004L28.5537 72.7804L41.5196 113.494C41.9248 114.766 43.4388 115.292 44.5451 114.544L68.3402 98.465C69.1211 97.9373 70.1644 98.0264 70.8445 98.6789L83.25 110.58L110.004 73.0625C110.485 72.3869 111.334 72.079 112.137 72.2886L138.152 79.0804L151.553 66.5658C151.799 66.3354 151.984 66.0463 152.089 65.7254L165.162 25.723C165.473 24.771 166.441 24.1959 167.426 24.3775L193.054 29.1004L218.011 1.50439C219.058 0.3462 220.97 0.781541 221.412 2.2791L233.453 43.0258C233.822 44.273 235.264 44.8423 236.385 44.1831L247.75 37.5004L259.507 30.3318C260.564 29.6877 261.946 30.1477 262.405 31.2966L274.178 60.7271C274.711 62.0595 276.433 62.4136 277.448 61.3997L302.652 36.2404L330.206 29.1004" stroke="#AF52DE" stroke-linecap="round" stroke-linejoin="round"/>
</svg>
